# xmcd
#
# Track frame offsets:
#	150
#	23492
#	53707
#	70357
#	90437
#	104702
#	123000
#	150075
#	171452
#	185955
#	199462
#	216825
#
# Disc length: 3123 seconds
#
# Revision: 22
# Processed by: cddbd v1.5.2PL0 Copyright (c) Steve Scherf et al.
# Submitted via: audiograbber 1.83.01
#
DISCID=a60c310c
DTITLE=Head East - 20th Century Masters - The Millennium Collection - The Best 
DTITLE=Of
DYEAR=2001
DGENRE=Oldies
TTITLE0=Never Been Any Reason
TTITLE1=Jefftown Creek
TTITLE2=City Of Gold
TTITLE3=Love Me Tonight
TTITLE4=Monkey Shine
TTITLE5=Gettin' Lucky
TTITLE6=Every Little Bit Of My Heart
TTITLE7=Get Up And Enjoy Yourself
TTITLE8=Man I Wanna Be
TTITLE9=Since You Been Gone
TTITLE10=Keep A Secret
TTITLE11=Take A Hand  (Live)
EXTD=
EXTT0=
EXTT1=
EXTT2=
EXTT3=
EXTT4=
EXTT5=
EXTT6=
EXTT7=
EXTT8=
EXTT9=
EXTT10=
EXTT11=
PLAYORDER=
